<?xml version="1.0" encoding="utf-8"?>
<!-- Generator: Adobe Illustrator 28.0.0, SVG Export Plug-In . SVG Version: 6.00 Build 0)  -->
<svg version="1.1" id="Layer_1" xmlns="http://www.w3.org/2000/svg" xmlns:xlink="http://www.w3.org/1999/xlink" x="0px" y="0px"
	 viewBox="0 0 754 203" style="enable-background:new 0 0 754 203;" xml:space="preserve">
<style type="text/css">
	.st0{fill:#00986C;}
	.st1{fill:#2CA880;}
	.st2{fill:#006D49;}
	.st3{fill:#57BD9E;}
	.st4{fill:#FBFBFB;}
	.st5{fill:#2F556A;}
	.st6{fill:#3D2618;}
	.st7{fill:#3D2517;}
	.st8{fill:#332621;}
	.st9{fill:#2B221D;}
	.st10{fill:#FEFEFE;}
	.st11{fill:#FFFFFF;}
	.st12{fill:#010101;}
</style>
<path class="st1" d="M77.56,62.13l60.79,97.65l7.27,14.18l-0.71-15.77V62.13h16.66V191.5h-19.49L80.04,91.19l-7.8-13.65l1.24,16.13
	v97.83H57V62.13H77.56z"/>
<path class="st1" d="M224.22,192.38c-3.78-0.59-7.35-1.45-10.72-2.57c-3.37-1.12-6.47-2.51-9.3-4.17c-2.84-1.65-5.47-3.51-7.89-5.58
	c-2.42-2.07-4.64-4.31-6.65-6.74c-2.01-2.42-3.81-5.02-5.4-7.8c-1.59-2.77-2.99-5.7-4.17-8.77c-1.18-3.07-2.16-6.23-2.92-9.48
	c-0.77-3.25-1.33-6.61-1.68-10.1c-0.35-3.48-0.53-7-0.53-10.54c0-3.55,0.21-7.03,0.62-10.46c0.41-3.43,1.06-6.76,1.95-10.01
	c0.89-3.25,1.98-6.38,3.28-9.39c1.3-3.01,2.81-5.91,4.52-8.68c1.71-2.78,3.6-5.37,5.67-7.8c2.07-2.42,4.34-4.67,6.82-6.74
	c2.48-2.06,5.17-3.93,8.06-5.58c2.89-1.65,5.96-3.04,9.22-4.17c3.25-1.12,6.67-1.98,10.28-2.57c3.6-0.59,7.36-0.89,11.25-0.89
	c4.13,0,8.09,0.3,11.87,0.89c3.78,0.59,7.33,1.45,10.63,2.57c3.31,1.12,6.38,2.48,9.22,4.08c2.84,1.59,5.49,3.43,7.97,5.49
	c2.48,2.07,4.75,4.31,6.82,6.74c2.07,2.42,3.93,4.99,5.58,7.71c1.65,2.72,3.07,5.61,4.25,8.68c1.18,3.07,2.18,6.23,3.01,9.48
	c0.82,3.25,1.44,6.62,1.86,10.1c0.41,3.49,0.62,7,0.62,10.54c0,3.54-0.21,7.03-0.62,10.46c-0.42,3.43-1.04,6.76-1.86,10.01
	c-0.83,3.25-1.86,6.41-3.1,9.48c-1.24,3.07-2.69,6-4.34,8.77c-1.66,2.78-3.52,5.38-5.58,7.8c-2.07,2.42-4.34,4.7-6.82,6.82
	c-2.48,2.12-5.17,3.99-8.06,5.58c-2.9,1.6-6,2.99-9.3,4.17c-3.31,1.18-6.85,2.06-10.63,2.66c-3.78,0.59-7.74,0.88-11.87,0.88
	C232.02,193.27,228,192.97,224.22,192.38z M246.02,176.88c2.95-0.53,5.73-1.33,8.33-2.39c2.6-1.06,4.99-2.36,7.18-3.9
	c2.18-1.53,4.19-3.25,6.02-5.14c1.83-1.89,3.46-3.96,4.87-6.2c1.42-2.25,2.66-4.64,3.72-7.18c1.06-2.54,1.92-5.2,2.57-7.98
	c0.65-2.78,1.15-5.61,1.51-8.51c0.35-2.89,0.53-5.88,0.53-8.95c0-3.07-0.18-6.11-0.53-9.13c-0.35-3.01-0.89-5.88-1.59-8.6
	c-0.71-2.72-1.59-5.35-2.66-7.89s-2.3-4.9-3.72-7.09c-1.42-2.18-3.01-4.22-4.79-6.11c-1.77-1.89-3.75-3.57-5.94-5.05
	c-2.19-1.48-4.58-2.75-7.18-3.81c-2.6-1.06-5.38-1.86-8.33-2.39c-2.95-0.53-6.09-0.8-9.39-0.8c-3.19,0-6.2,0.26-9.04,0.8
	c-2.84,0.53-5.52,1.33-8.06,2.39c-2.54,1.06-4.9,2.37-7.09,3.9c-2.19,1.54-4.19,3.25-6.02,5.14c-1.83,1.89-3.49,3.93-4.96,6.11
	c-1.48,2.19-2.78,4.55-3.9,7.09c-1.12,2.54-2.07,5.2-2.84,7.97c-0.77,2.78-1.33,5.61-1.68,8.51c-0.35,2.9-0.53,5.88-0.53,8.95
	c0,3.07,0.18,6.05,0.53,8.95c0.35,2.9,0.86,5.73,1.51,8.51c0.65,2.78,1.48,5.43,2.48,7.98c1,2.54,2.21,4.93,3.63,7.18
	c1.42,2.25,3.01,4.31,4.79,6.2c1.77,1.89,3.75,3.61,5.94,5.14c2.18,1.54,4.55,2.84,7.09,3.9c2.54,1.06,5.32,1.86,8.33,2.39
	c3.01,0.53,6.23,0.8,9.66,0.8C239.87,177.67,243.06,177.41,246.02,176.88z"/>
<path class="st1" d="M413.61,178.89l-10.05-21.22l-3.37-7.14l-11.63-24.55l-7.82-16.52l-18.24-38.48h-15.26l-55.07,121.63h15.53
	l47.36-105.54l18.13,39.03l7.8,16.75l11.49,24.73l3.37,7.27l8.24,17.76h15.97L413.61,178.89z"/>
<path class="st1" d="M419.38,52.28h-16.37l-23.14,51.12l-8.1,17.84l8.37,17.97l8.12-18.09l23.14-51.59l57.52,123.07h17.13
	L419.38,52.28z"/>
<path class="st1" d="M492.94,62.13h17.19v57.24h70V62.13h17.19V191.5h-17.19v-59.01h-70v59.01h-17.19V62.13z"/>
<path class="st1" d="M625.77,62.13l31.01,56.18l5.49,11.7l5.85-11.7l31.19-56.18h18.96l-47.67,82.58v46.79h-17.19v-46.96
	l-46.79-82.41H625.77z"/>
<polygon class="st1" points="372.95,93.68 343.29,32 329.52,32 352.47,82.48 "/>
<polygon class="st1" points="336.41,93.68 366.07,32 379.83,32 356.89,82.48 "/>
<polygon class="st1" points="430.59,76.63 398.78,10.47 384.01,10.47 408.62,64.62 "/>
<polygon class="st1" points="391.39,76.63 423.21,10.47 437.98,10.47 413.36,64.62 "/>
</svg>
